<?xml version="1.0" encoding="UTF-8" standalone="no"?>
<!-- Created with Inkscape (http://www.inkscape.org/) -->

<svg
   width="30mm"
   height="30mm"
   viewBox="0 0 30 30"
   version="1.1"
   id="svg1"
   xml:space="preserve"
   inkscape:version="1.4 (86a8ad7, 2024-10-11)"
   sodipodi:docname="logo.svg"
   xmlns:inkscape="http://www.inkscape.org/namespaces/inkscape"
   xmlns:sodipodi="http://sodipodi.sourceforge.net/DTD/sodipodi-0.dtd"
   xmlns:xlink="http://www.w3.org/1999/xlink"
   xmlns="http://www.w3.org/2000/svg"
   xmlns:svg="http://www.w3.org/2000/svg"><sodipodi:namedview
     id="namedview1"
     pagecolor="#ffffff"
     bordercolor="#000000"
     borderopacity="0.25"
     inkscape:showpageshadow="2"
     inkscape:pageopacity="0.0"
     inkscape:pagecheckerboard="0"
     inkscape:deskcolor="#d1d1d1"
     inkscape:document-units="mm"
     inkscape:zoom="2.0535659"
     inkscape:cx="-18.504398"
     inkscape:cy="39.200106"
     inkscape:window-width="1920"
     inkscape:window-height="1017"
     inkscape:window-x="-8"
     inkscape:window-y="-8"
     inkscape:window-maximized="1"
     inkscape:current-layer="layer1" /><defs
     id="defs1" /><g
     inkscape:label="Layer 1"
     inkscape:groupmode="layer"
     id="layer1"><g
       id="g20"
       transform="matrix(0.62326838,0,0,0.62326838,-13.870976,66.560133)"
       style="stroke-width:1.60444"><path
         style="fill:#d1b88e;fill-opacity:1;stroke:#000000;stroke-width:0.320889;stroke-linecap:round;stroke-linejoin:round;stroke-opacity:1"
         d="m 35.439562,-90.375468 c 1.63851,6.9846 5.5349,18.50534 10.29479,23.50491 4.7599,4.99958 9.76307,7.14922 9.35327,3.55766 -0.2049,-1.79578 -1.26654,-2.71354 -2.13919,-4.39717 -0.81242,-1.56741 -0.78327,-6.1302 0.99177,-10.98952 0.52627,5.35676 -0.0442,9.67115 1.10803,10.80551 1.70374,1.67736 2.43236,2.35583 2.79462,5.32753 0.72452,5.94341 -7.56954,4.7356 -14.29499,-1.11534 -6.72545,-5.85095 -12.11489,-14.06938 -14.5767,-24.05155"
         id="path12"
         sodipodi:nodetypes="czsscsszc" /><path
         style="fill:#d1b88e;fill-opacity:1;stroke:#000000;stroke-width:0.320889;stroke-linecap:round;stroke-linejoin:round;stroke-opacity:1"
         d="m 23.992372,-93.376518 c -0.34665,3.19054 2.7695,7.33752 8.85687,5.08599 6.08737,-2.25153 3.25076,-8.34909 2.60997,-9.2089 -0.6408,-0.8598 -3.71814,-2.05897 -5.02479,1.73936 l -1.67494,0.51536 c -1.54305,-1.33377 -4.42046,-1.32235 -4.76711,1.86819 z"
         id="path15"
         sodipodi:nodetypes="zzzccz" /><g
         id="g19"
         transform="translate(-115.15583,-217.19264)"
         style="stroke-width:1.60444"><path
           style="fill:#cdcdcd;fill-opacity:1;stroke:#000000;stroke-width:0.320889;stroke-linecap:round;stroke-linejoin:round;stroke-opacity:1"
           d="m 162.88545,135.03995 2.03651,0.84404 2.61301,1.95442 v 10.27932 h -1.47763 v -5.28405 l -2.04984,-1.34379 c -0.47071,-0.1898 -0.72884,-0.56181 -0.77439,-1.11603 l 0.0683,-1.18435 c 0.0152,-0.45552 -0.12147,-0.81994 -0.40997,-1.09325 l -0.81012,-0.4656 z"
           id="path5"
           sodipodi:nodetypes="cccccccccccc" /><use
           x="0"
           y="0"
           xlink:href="#path5"
           id="use5"
           transform="matrix(-1,0,0,1,337.12295,0.02518158)"
           style="stroke-width:1.60444" /><use
           x="0"
           y="0"
           xlink:href="#path3"
           id="use3"
           transform="matrix(-1,0,0,1,337.3097,0.03704842)"
           style="stroke-width:1.60444" /><path
           style="fill:#cdcdcd;fill-opacity:1;stroke:#000000;stroke-width:0.320889;stroke-linecap:round;stroke-linejoin:round;stroke-opacity:1"
           d="m 155.67787,125.60819 2.87619,-2.32938 1.28208,1.84419 -0.78712,1.65193 z"
           id="path3" /><path
           style="fill:#212121;fill-opacity:1;stroke:#000000;stroke-width:0.320889;stroke-linecap:round;stroke-linejoin:round;stroke-opacity:1"
           d="m 169.09188,110.40055 h -9.54849 v 9.74816 c -1.66396,3.06404 -0.90233,4.91528 0.81994,6.2862 l 2.2776,3.37086 c 0.73579,1.31061 2.01109,1.42233 3.27976,1.54877 h 3.26229"
           id="path1"
           sodipodi:nodetypes="ccccccc" /><use
           x="0"
           y="0"
           xlink:href="#path1"
           id="use1"
           transform="matrix(-1,0,0,1,337.30764,-4.1705357e-7)"
           style="stroke-width:1.60444" /><path
           style="fill:#212121;fill-opacity:1;stroke:#ffffff;stroke-width:0.320889;stroke-linecap:round;stroke-linejoin:round;stroke-opacity:1"
           d="m 153.97852,128.71468 6.86965,8.67201 c 0.94398,0.81077 1.85965,0.69987 2.74701,-0.3327 0.63898,-1.2271 0.14729,-2.19333 -1.47506,-2.89871 l -3.02885,-3.45381 c -0.59159,-0.43879 -0.69837,-1.09621 -0.44649,-1.89024 l 0.55309,-1.7575 c -0.10739,-1.31331 -0.81207,-1.84283 -2.11405,-1.58856 -0.81644,0.20509 -1.73338,0.22475 -2.43844,0.63524 -1.06508,0.79826 -1.28737,1.66968 -0.66686,2.61427 z"
           id="path2"
           sodipodi:nodetypes="cccccccccc"
           inkscape:transform-center-x="3.3841988"
           inkscape:transform-center-y="-4.4599198" /><use
           x="0"
           y="0"
           xlink:href="#path2"
           id="use2"
           transform="matrix(-1,0,0,1,337.46923,-0.09110429)"
           style="stroke:#ffffff;stroke-width:1.60444;stroke-opacity:1" /><path
           style="fill:#212121;fill-opacity:1;stroke:#ffffff;stroke-width:0.320889;stroke-linecap:round;stroke-linejoin:round;stroke-opacity:1"
           d="m 164.53601,138.16339 -0.28122,-13.5629 c 0.0115,-0.78773 0.47502,-1.26214 1.39055,-1.42319 0.85561,0.0137 1.33614,0.49776 1.4416,1.45228 l 0.47939,13.10043 c 0.0167,1.18269 -0.47789,1.77839 -1.48367,1.7871 -0.89676,-0.001 -1.41231,-0.45263 -1.54665,-1.35372 z"
           id="path4"
           sodipodi:nodetypes="ccccccc"
           inkscape:transform-center-x="-0.33254913"
           inkscape:transform-center-y="6.8224295" /><use
           x="0"
           y="0"
           xlink:href="#path4"
           id="use4"
           transform="matrix(-1,0,0,1,337.21405,0.02518158)"
           style="fill:#212121;fill-opacity:1;stroke:#ffffff;stroke-width:1.60444;stroke-opacity:1" /></g><ellipse
         style="fill:#000000;fill-opacity:1;stroke:#000000;stroke-width:0.320891;stroke-linecap:round;stroke-linejoin:round;stroke-opacity:1"
         id="path8"
         cx="46.987846"
         cy="-85.196594"
         rx="1.0042487"
         ry="1.2812829"
         transform="rotate(-12.927781)" /><ellipse
         style="fill:#000000;fill-opacity:1;stroke:#000000;stroke-width:0.320891;stroke-linecap:round;stroke-linejoin:round;stroke-opacity:1"
         id="path8-8"
         cx="53.52594"
         cy="-85.878204"
         rx="1.0042487"
         ry="1.2812829"
         transform="rotate(-12.927781)" /><ellipse
         style="fill:#000000;fill-opacity:1;stroke:none;stroke-width:0.326524;stroke-linecap:round;stroke-linejoin:round;stroke-opacity:1"
         id="path8-2-4"
         cx="78.708771"
         cy="-39.746487"
         rx="0.22779727"
         ry="0.38145971"
         inkscape:transform-center-x="-0.32609044"
         inkscape:transform-center-y="-0.24229708"
         transform="matrix(0.65549094,-0.75520303,0.55938516,0.82890786,0,0)" /><ellipse
         style="fill:#000000;fill-opacity:1;stroke:none;stroke-width:0.326524;stroke-linecap:round;stroke-linejoin:round;stroke-opacity:1"
         id="path8-2-4-4"
         cx="52.382088"
         cy="-70.383377"
         rx="0.22779727"
         ry="0.38145971"
         inkscape:transform-center-x="-0.39225124"
         inkscape:transform-center-y="-0.10575224"
         transform="matrix(0.8868658,-0.46202712,0.21623796,0.97634069,0,0)" /><ellipse
         style="fill:#ffffff;fill-opacity:1;stroke:none;stroke-width:0.320891;stroke-linecap:round;stroke-linejoin:round;stroke-opacity:1"
         id="path8-2-4-9"
         cx="47.169937"
         cy="-85.759842"
         rx="0.38697731"
         ry="0.38820139"
         inkscape:transform-center-x="3.3793806"
         inkscape:transform-center-y="0.90486278"
         transform="rotate(-12.927781)" /><ellipse
         style="fill:#ffffff;fill-opacity:1;stroke:#000000;stroke-width:0.320891;stroke-linecap:round;stroke-linejoin:round;stroke-opacity:1"
         id="path8-2-4-2"
         cx="53.799057"
         cy="-86.488297"
         rx="0.38697731"
         ry="0.38820139"
         inkscape:transform-center-x="3.3793741"
         inkscape:transform-center-y="0.90486107"
         transform="rotate(-12.927781)" /><path
         style="fill:#ff0000;fill-opacity:1;stroke:#000000;stroke-width:0.320891;stroke-linecap:round;stroke-linejoin:round;stroke-opacity:1"
         d="m 31.263602,-91.572748 c -0.10434,1.383 1.66461,1.27751 2.60494,2.16648 -0.95753,-0.56007 -0.55283,-1.87484 1.14714,-1.48088 -1.06421,-0.3243 -2.4629,0.0219 -2.84501,-0.75429"
         id="path10"
         sodipodi:nodetypes="cccc" /><path
         style="fill:none;fill-opacity:1;stroke:#000000;stroke-width:0.320889;stroke-linecap:round;stroke-linejoin:round;stroke-opacity:1"
         d="m 27.277812,-90.348748 c 1.9274,0.87238 1.16469,-0.43815 3.60755,-1.22399 2.44286,-0.78584 3.06115,0.56254 3.09218,-1.22398"
         id="path16"
         sodipodi:nodetypes="czc" /><path
         style="fill:#483821;fill-opacity:1;stroke:#000000;stroke-width:0.320889;stroke-linecap:round;stroke-linejoin:round;stroke-opacity:1"
         d="m 36.747622,-85.388368 c -0.88041,-0.37574 -1.97821,-0.76759 -2.64124,0.0644 -0.66303,0.83199 -0.83424,1.67489 0,2.57682 0.83424,0.90193 2.02721,1.68567 2.38357,2.38356 0.35635,0.69789 -0.14701,3.1211 0.77304,3.4787 0.92005,0.3576 1.93261,-1.35283 1.93261,-1.35283"
         id="path17"
         sodipodi:nodetypes="czzzzc" /><path
         style="fill:#483821;fill-opacity:1;stroke:#000000;stroke-width:0.320889;stroke-linecap:round;stroke-linejoin:round;stroke-opacity:1"
         d="m 36.425522,-71.409128 c 0,0 0.94266,-1.62992 1.73935,-1.73935 0.79669,-0.10943 1.27277,2.61366 2.28693,3.51092 1.01416,0.89726 2.66889,0.97194 3.18881,2.28692 0.51992,1.31498 0.58028,2.1213 0.3221,2.70566 -0.25818,0.58436 -0.77304,0.6442 -0.77304,0.6442"
         id="path18"
         sodipodi:nodetypes="czzzzc" /><path
         style="fill:#483821;fill-opacity:1;stroke:#000000;stroke-width:0.320889;stroke-linecap:round;stroke-linejoin:round;stroke-opacity:1"
         d="m 48.923092,-63.807518 c 0,0 -0.67673,0.0391 -0.83746,0.51537 -0.16073,0.47629 0.0359,1.28909 0.57978,1.61051 0.54387,0.32142 2.13351,-0.0105 3.1566,1.15957 1.02309,1.1701 1.34519,0.32689 1.73935,0.0644 0.39416,-0.26249 0.38653,-1.03073 0.38653,-1.03073"
         id="path19"
         sodipodi:nodetypes="czzzzc" /></g></g></svg>
